<?xml version="1.0" standalone="no"?>
<!DOCTYPE svg PUBLIC "-//W3C//DTD SVG 20010904//EN"
 "http://www.w3.org/TR/2001/REC-SVG-20010904/DTD/svg10.dtd">
<svg version="1.0" xmlns="http://www.w3.org/2000/svg"
 width="1228.000000pt" height="1536.000000pt" viewBox="0 0 1228.000000 1536.000000"
 preserveAspectRatio="xMidYMid meet">
<metadata>
Created by potrace 1.16, written by Peter Selinger 2001-2019
</metadata>
<g transform="translate(0.000000,1536.000000) scale(0.100000,-0.100000)"
fill="#000000" stroke="none">
<path d="M3750 15332 c-114 -76 -166 -145 -211 -279 l-31 -95 11 -137 c13
-153 3 -394 -28 -711 -10 -102 -18 -186 -16 -188 1 -1 29 -7 63 -12 95 -16
174 -56 407 -207 150 -98 181 -125 280 -248 88 -110 103 -123 143 -131 30 -6
37 -1 102 68 38 41 123 138 188 215 l118 141 43 134 c30 91 45 157 48 208 8
116 -40 428 -75 496 -26 50 -224 285 -354 420 l-118 121 -222 112 c-129 65
-240 114 -263 117 -33 5 -48 0 -85 -24z"/>
<path d="M2613 14906 c-83 -27 -181 -129 -325 -341 -134 -195 -180 -312 -222
-560 -19 -111 -87 -445 -160 -794 -55 -260 -56 -265 -56 -435 0 -268 20 -1154
30 -1331 8 -147 27 -246 49 -259 4 -3 35 35 70 84 35 49 83 108 108 131 86 79
235 135 656 245 254 66 298 84 457 187 208 135 267 152 540 151 137 0 224 -6
335 -22 83 -12 215 -27 295 -33 182 -13 625 -8 640 7 13 13 -69 435 -101 516
-34 86 -97 203 -134 245 -19 23 -39 60 -44 84 -14 63 -31 346 -32 534 0 88 -3
177 -7 199 l-7 38 -63 -73 c-125 -145 -202 -218 -237 -225 -75 -14 -129 19
-212 130 -103 136 -177 197 -418 343 -148 90 -178 102 -265 115 -44 6 -87 16
-95 22 -14 10 -13 44 9 296 14 157 27 339 30 406 l6 121 -137 6 c-76 4 -156
11 -178 17 -22 6 -125 53 -230 105 -104 51 -206 96 -225 99 -19 3 -54 -1 -77
-8z"/>
<path d="M615 12969 c-158 -15 -289 -37 -348 -59 -75 -28 -163 -88 -222 -151
-46 -49 -47 -53 -41 -96 9 -67 52 -136 128 -208 85 -81 183 -129 378 -184 182
-53 293 -97 705 -281 323 -145 559 -239 571 -228 7 8 6 284 -2 645 -6 247 -9
283 -23 287 -9 3 -30 7 -48 11 -17 3 -102 48 -187 100 -136 81 -168 96 -248
115 -230 54 -441 70 -663 49z"/>
<path d="M3595 11909 c-129 -11 -188 -35 -359 -148 -138 -91 -210 -119 -486
-191 -241 -63 -402 -113 -495 -155 -74 -32 -141 -98 -216 -211 l-62 -95 23
-40 c37 -66 51 -136 57 -280 7 -162 -7 -324 -48 -574 -41 -247 -42 -326 -5
-435 43 -127 59 -152 156 -254 82 -86 90 -99 113 -172 49 -157 43 -275 -22
-444 -51 -133 -180 -439 -283 -670 -126 -284 -135 -307 -214 -574 -110 -374
-132 -441 -245 -747 -349 -953 -392 -1173 -444 -2299 -8 -179 -22 -395 -30
-480 -28 -284 -86 -824 -101 -935 -27 -201 -27 -232 0 -510 36 -378 55 -661
62 -935 3 -129 7 -250 10 -269 l5 -33 25 23 c34 32 57 114 118 419 59 296 71
328 204 551 l69 116 7 119 c11 186 32 308 92 521 175 633 231 846 313 1197
189 802 192 814 326 1651 84 522 109 638 189 880 154 459 342 937 616 1565
220 503 255 574 292 578 34 4 51 -27 103 -188 85 -265 430 -1806 455 -2035 41
-378 166 -794 405 -1340 80 -182 410 -835 465 -919 28 -43 113 -164 188 -269
76 -106 163 -230 193 -277 68 -103 237 -319 389 -495 101 -117 119 -144 185
-280 l74 -150 252 -265 c666 -700 966 -1005 1002 -1016 25 -8 47 13 47 45 0
28 -2 30 -175 241 -67 81 -212 285 -363 511 -189 282 -276 404 -351 487 -124
139 -197 234 -304 398 -147 225 -257 437 -331 637 -72 193 -180 627 -247 989
-29 162 -36 216 -64 503 -17 177 -63 519 -190 1435 -123 886 -170 1241 -205
1545 -17 149 -42 341 -55 428 -14 88 -25 189 -25 227 0 74 23 161 50 185 60
55 293 83 417 51 142 -36 421 -199 778 -454 157 -112 1547 -1145 1965 -1460
416 -313 532 -407 688 -556 70 -67 280 -265 467 -440 396 -372 807 -781 887
-881 30 -38 63 -86 73 -105 43 -85 424 -547 609 -738 135 -139 235 -222 267
-222 11 0 25 13 34 31 21 39 26 30 -168 261 -230 274 -243 289 -454 581 -391
539 -509 696 -698 922 -279 335 -320 388 -561 730 -741 1052 -1157 1565 -1531
1887 -234 203 -578 443 -929 648 -203 119 -710 377 -886 451 l-107 46 32 31
c36 35 104 64 190 82 83 17 370 14 506 -5 367 -52 888 -198 1229 -344 694
-298 1635 -908 2651 -1719 423 -338 442 -357 1046 -1026 279 -308 306 -341
396 -489 67 -110 132 -174 283 -282 82 -59 135 -90 175 -101 31 -9 60 -20 64
-24 4 -4 -19 -33 -52 -65 -34 -32 -61 -66 -61 -76 0 -23 48 -33 97 -20 91 25
138 132 99 226 -17 40 -46 56 -146 80 -62 15 -82 26 -123 64 -61 56 -151 174
-219 284 -186 301 -344 517 -504 687 -64 69 -320 348 -568 620 -597 655 -720
784 -986 1039 -490 468 -801 723 -995 816 -134 64 -786 343 -1039 444 -261
105 -506 189 -669 231 -176 45 -433 67 -1042 91 -279 11 -303 13 -345 34 -115
58 -155 106 -211 251 -16 43 -65 136 -109 208 -100 166 -151 275 -196 418 -53
169 -59 184 -75 178 -8 -2 -126 -6 -264 -8 -270 -4 -460 7 -680 37 -147 21
-381 30 -500 20z m1231 -474 c72 -42 162 -180 208 -318 23 -68 21 -154 -4
-195 -27 -44 -43 -48 -108 -27 -46 14 -70 31 -127 89 -156 158 -192 325 -93
432 47 51 65 53 124 19z"/>
<path d="M5174 11688 c87 -195 215 -455 237 -481 l27 -32 35 17 c49 24 112 82
127 118 10 25 10 38 -4 79 -37 112 -58 132 -303 274 -72 43 -134 77 -137 77
-3 0 5 -24 18 -52z m374 -270 c16 -16 15 -73 -2 -106 -16 -30 -60 -74 -92 -90
-72 -37 -50 117 25 181 36 30 51 33 69 15z"/>
<path d="M5912 10280 c-40 -5 -76 -10 -78 -13 -3 -3 28 -12 68 -21 340 -77
989 -332 1563 -616 514 -254 619 -331 1085 -799 452 -453 1259 -1354 1397
-1559 51 -76 126 -239 117 -254 -3 -5 -13 -8 -23 -8 -12 0 -26 23 -50 80 -48
118 -108 202 -321 450 -559 649 -1145 1276 -1454 1554 -229 205 -348 282 -756
485 -413 206 -788 367 -1158 497 -159 56 -427 134 -457 134 -5 0 89 -49 210
-109 602 -295 1091 -603 1486 -933 389 -326 795 -820 1563 -1908 115 -162 236
-331 269 -375 56 -73 277 -345 281 -345 1 0 2 35 2 78 0 94 16 125 104 204 66
60 211 151 242 152 18 1 31 -21 78 -124 218 -484 588 -1123 808 -1397 134
-165 220 -240 647 -557 284 -210 399 -347 465 -552 39 -122 50 -196 50 -339 0
-144 -19 -262 -66 -408 -147 -453 -468 -984 -909 -1502 -163 -191 -561 -588
-730 -729 -484 -403 -937 -670 -1389 -821 -639 -212 -1588 -381 -2546 -452
-334 -24 -1072 -25 -1287 0 -339 39 -523 98 -567 185 -53 105 -9 340 98 523
99 167 237 298 401 379 149 75 229 93 410 93 221 1 367 -37 606 -155 76 -37
143 -68 149 -68 11 0 36 47 29 54 -2 2 -47 27 -99 54 -127 68 -278 127 -408
160 -95 23 -125 26 -272 26 -184 -1 -256 -15 -400 -77 -273 -118 -505 -391
-587 -690 -21 -77 -23 -246 -4 -301 42 -120 193 -190 511 -236 236 -34 437
-43 849 -37 973 14 2075 167 2898 403 449 128 776 279 1157 532 945 630 1866
1750 2151 2618 81 247 98 462 54 684 -57 289 -179 457 -509 703 -316 235 -362
271 -457 355 -52 46 -125 120 -164 165 -129 151 -363 521 -571 905 -141 260
-313 622 -306 644 5 15 136 54 278 85 117 25 141 27 385 27 264 0 355 -9 513
-50 30 -8 56 -13 58 -11 4 4 -192 225 -475 536 -217 238 -310 324 -636 585
-1094 876 -2088 1515 -2785 1789 -526 207 -1195 342 -1518 307z"/>
<path d="M4874 9450 c-56 -18 -63 -24 -78 -60 -22 -55 -20 -124 8 -313 14 -89
37 -265 51 -392 41 -363 56 -472 219 -1655 137 -983 173 -1262 191 -1465 18
-212 31 -295 92 -590 94 -462 179 -754 285 -976 95 -199 315 -569 338 -569 4
0 11 28 14 63 26 236 160 575 384 977 132 238 231 370 402 540 421 419 961
687 1571 780 425 66 1023 41 1433 -59 l116 -28 -69 76 c-162 178 -1244 1214
-1450 1387 -166 139 -664 514 -2009 1512 -656 487 -931 669 -1137 753 -71 29
-93 33 -190 36 -89 2 -122 -1 -171 -17z"/>
<path d="M3213 8878 c-439 -997 -599 -1391 -779 -1922 -95 -278 -115 -375
-229 -1096 -88 -554 -114 -688 -230 -1186 -129 -552 -186 -779 -275 -1099
-169 -603 -191 -698 -190 -835 l1 -45 41 50 c80 97 264 271 378 357 263 198
584 358 910 453 148 43 412 98 421 87 4 -4 84 -145 177 -313 228 -409 262
-466 318 -529 47 -51 105 -87 124 -75 30 19 -27 144 -184 404 -149 246 -149
245 -161 403 l-10 138 35 7 c52 9 418 -4 565 -22 411 -48 862 -167 1298 -342
76 -30 141 -53 144 -50 9 10 -71 148 -108 186 -101 105 -386 466 -467 591 -30
47 -107 157 -170 244 -189 263 -241 349 -389 641 -413 820 -623 1397 -674
1850 -6 55 -26 181 -45 280 -37 192 -306 1412 -349 1580 -34 135 -97 335 -105
335 -4 0 -25 -42 -47 -92z"/>
</g>
</svg>
